<?xml version="1.0" encoding="utf-8"?>
<!-- Generator: Adobe Illustrator 27.7.0, SVG Export Plug-In . SVG Version: 6.00 Build 0)  -->
<svg version="1.1" id="Layer_1" xmlns="http://www.w3.org/2000/svg" xmlns:xlink="http://www.w3.org/1999/xlink" x="0px" y="0px"
	 viewBox="0 0 613.5 135.4" style="enable-background:new 0 0 613.5 135.4;" xml:space="preserve">
<style type="text/css">
	.st0{fill:#D76227;}
	.st1{fill:#9F4923;}
	.st2{fill:#602E13;}
</style>
<g>
	<g>
		<path class="st0" d="M76.9,58.5l30.9-16.6c0,0,7.8-2.7,8,5c0.2,7.7,0,36.5,0,36.5s1.4,6.5-3.8,10.3c-5.2,3.8-19.7,14.1-19.7,14.1
			s-6.4,4.1-6.5-4.7C85.6,92.4,86,79.2,86,79.2s0.2-8.3,7.6-10.5c0,0,4.3-1.6,4.3,5.8c0,7.6-0.4,13.1-0.4,13.1s-1.1,6.3,3.4,3.1
			l4.9-3.4c0,0,3.1-2,3.1-8.4l-0.4-24.1c0,0,0.5-6.3-5-3.4L80.2,62.5c0,0-4.3,1-4.3,10.6l-0.6,59.5l0,1.9c0,0,0.1,1-0.6,1
			c-0.7,0-0.9-0.7-0.9-1c0-0.3-2-61.6-2-61.6S69.8,62.1,76.9,58.5z"/>
		<path class="st1" d="M64.7,62.9l-1.9,35c0,0-1.7,8.1-8.4,4.3c-6.7-3.8-31.2-19-31.2-19s-6.3-2.2-6.8-8.6
			c-0.5-6.4-1.8-24.2-1.8-24.2s-0.2-7.6,7.4-3.1c9.2,5.4,20.3,12.6,20.3,12.6s7,4.5,5.1,11.9c0,0-0.9,4.5-7.2,0.6
			c-6.5-3.9-11-7.1-11-7.1s-4.8-4.2-4.4,1.3l0.4,5.9c0,0,0.1,3.7,5.6,7l20.8,12.2c0,0,5.1,3.7,5.5-2.5l2.5-25.7c0,0,1.4-4.1-6.9-9.2
			L2.2,23.1l-1.6-1c0,0-0.9-0.5-0.5-1c0.3-0.6,1.1-0.4,1.3-0.2C1.6,21,55.1,51.1,55.1,51.1S65.3,55.1,64.7,62.9z"/>
		<path class="st2" d="M65.9,48.9L36.1,30.5c0,0-6.3-5.4,0.3-9.5S67.9,2.7,67.9,2.7s4.9-4.5,10.8-1.9c5.9,2.6,22.1,10,22.1,10
			s6.8,3.5-0.8,8c-9.2,5.5-20.8,11.8-20.8,11.8s-7.3,3.9-12.9-1.3c0,0-3.5-2.9,2.9-6.6c6.5-3.8,11.5-6.3,11.5-6.3s6-2.2,0.9-4.5
			l-5.4-2.5c0,0-3.3-1.7-8.8,1.5L46.8,23.4c0,0-5.7,2.7-0.5,6L67.7,44c0,0,3,3.2,11.3-1.6L130.8,13l1.6-0.9c0,0,0.8-0.5,1.2,0
			c0.4,0.6-0.2,1.1-0.5,1.3c-0.3,0.1-52.3,32.6-52.3,32.6S72.5,53.1,65.9,48.9z"/>
	</g>
	<g>
		<g>
			<g>
				<rect x="159.8" y="49" class="st2" width="13.6" height="31.8"/>
				<path class="st2" d="M197.2,49v40.3c0,2.9-1.4,4.4-4.3,4.4h-15.3c-2.9,0-4.4-1.5-4.4-4.4v-3h-13.6v0.9c0,2.6,0.2,4.8,0.7,6.7
					c0.5,1.8,1.3,3.3,2.4,4.4c1.1,1.1,2.5,2,4.2,2.5c1.7,0.5,3.8,0.8,6.3,0.8h23.9c2.5,0,4.6-0.3,6.4-0.8s3.1-1.3,4.2-2.5
					c1.1-1.1,1.9-2.6,2.4-4.4c0.5-1.8,0.7-4.1,0.7-6.7V49H197.2z"/>
			</g>
			<g>
				<polygon class="st2" points="233.3,61 233.3,61 233.3,33.9 219.6,33.9 219.6,101.6 230.5,101.6 233.3,96.6 				"/>
				<path class="st2" d="M269.3,51.4c-1.7-1.6-3.8-2.4-6.4-2.4H256c-2.3,0-4,0.4-5.1,1c-1.1,0.7-2.1,1.9-3,3.5l-9.1,16.4V87
					l14.9-26.5c0.6-1.2,1.4-1.7,2.2-1.7c1.5,0,2.3,1,2.3,2.9v40h13.7V58.5C271.8,55.4,270.9,53,269.3,51.4z"/>
			</g>
			<g>
				<rect x="280.4" y="49" class="st2" width="13.6" height="31.8"/>
				<path class="st2" d="M317.9,49v40.3c0,2.9-1.4,4.4-4.3,4.4h-15.2c-2.9,0-4.4-1.5-4.4-4.4v-3h-13.6v0.9c0,2.6,0.2,4.8,0.7,6.7
					c0.5,1.8,1.3,3.3,2.4,4.4c1.1,1.1,2.5,2,4.2,2.5c1.7,0.5,3.8,0.8,6.3,0.8h23.9c2.5,0,4.6-0.3,6.4-0.8s3.2-1.3,4.2-2.5
					c1.1-1.1,1.9-2.6,2.3-4.4s0.7-4.1,0.7-6.7V49H317.9z"/>
			</g>
			<g>
				<rect x="340.2" y="87" class="st2" width="13.6" height="14.6"/>
				<path class="st2" d="M381.5,81.4c3.7-0.2,6.4-1.4,8.2-3.6c1.7-2.2,2.6-5.3,2.6-9.3v-6.6c0-4.7-1-8-3.1-9.9
					c-2.1-2-5.6-2.9-10.5-2.9h-38.4v32.5h13.6v0h13.8l11.2,20.1h14.1L381.5,81.4z M378.6,69.2c0,2.8-1.4,4.3-4.3,4.3h-20.6V57h20.6
					c2.8,0,4.3,1.4,4.3,4.3V69.2z"/>
			</g>
			<g>
				<rect x="398.8" y="49" class="st2" width="13.6" height="31.8"/>
				<path class="st2" d="M436.3,49v40.3c0,2.9-1.4,4.4-4.3,4.4h-15.3c-2.9,0-4.4-1.5-4.4-4.4v-3h-13.6v0.9c0,2.6,0.2,4.8,0.7,6.7
					c0.5,1.8,1.3,3.3,2.3,4.4c1.1,1.1,2.5,2,4.2,2.5c1.7,0.5,3.8,0.8,6.3,0.8h23.9c2.5,0,4.6-0.3,6.4-0.8s3.2-1.3,4.2-2.5
					c1.1-1.1,1.9-2.6,2.3-4.4s0.7-4.1,0.7-6.7V49H436.3z"/>
			</g>
			<g>
				<rect x="470" y="62.4" class="st2" width="13.6" height="39.2"/>
				<polygon class="st2" points="455.6,49 455.6,57 470,57 470,57 483.6,57 483.6,57 497.4,57 497.4,49 				"/>
			</g>
			<g>
				<path class="st2" d="M549.9,52c-2.2-2-5.7-3-10.4-3h-24.8c-2.5,0-4.6,0.3-6.4,0.8c-1.7,0.5-3.2,1.4-4.2,2.6
					c-1.1,1.2-1.8,2.8-2.3,4.8c-0.5,2-0.7,4.5-0.7,7.5v16.2h17.8l0,0h20.6c4.9,0,8.5-1,10.5-3.1c2.1-2.1,3.1-5.3,3.1-9.8v-5.7
					C553.2,57.5,552.1,54,549.9,52z M539.5,68.6c0,2.8-1.4,4.3-4.3,4.3h-20.6V61.2c0-2.9,1.5-4.3,4.4-4.3h16.2
					c2.9,0,4.3,1.4,4.3,4.3V68.6z"/>
				<path class="st2" d="M514.7,89.3v-2.9h-13.6c0,2.7,0.3,4.9,0.7,6.8c0.5,2,1.3,3.6,2.3,4.9c1.1,1.2,2.5,2.2,4.2,2.7
					s3.8,0.8,6.3,0.8h36.8v-7.9H519C516.1,93.7,514.7,92.2,514.7,89.3z"/>
			</g>
			<g>
				<path class="st2" d="M612.7,76.6c-0.5-1.9-1.5-3.5-2.8-4.6c-1.3-1.2-3-2-5.1-2.4c-2.1-0.5-4.7-0.7-7.8-0.7h-6.4L601.7,49h-9.6
					l-11.9,21v17.5l6.1-10.9h9.3c2.8,0,4.3,1.5,4.3,4.4v20.6h13.6V83.7C613.5,80.9,613.2,78.5,612.7,76.6z"/>
				<polygon class="st2" points="574.8,66.8 574.8,66.8 574.8,33.9 561.1,33.9 561.1,101.6 572.4,101.6 574.8,97.2 				"/>
			</g>
		</g>
	</g>
</g>
</svg>
